# xmcd CD database file
#
# Track frame offsets:
#	150
#	17822
#	34945
#	51667
#	72147
#	83777
#	103312
#	121912
#	137872
#	155610
#
# Disc length: 2339 seconds
#
# Revision: 2
# Processed by: cddbd v1.5.2PL0 Copyright (c) Steve Scherf et al.
# Submitted via: CDex 1.70beta2
#
DISCID=8e09210a
DTITLE=Smokey Robinson - Double Good Everything
DYEAR=1991
DGENRE=R&B
TTITLE0=Why
TTITLE1=Double Good Everything
TTITLE2=Rewind
TTITLE3=Be Who You Are
TTITLE4=I Love Your Face
TTITLE5=I Can't Get Enough
TTITLE6=Rack Me Back
TTITLE7=When A Woman Cries
TTITLE8=You Take Me Away
TTITLE9=Skid Row
EXTD=YEAR: 1991
EXTT0=
EXTT1=
EXTT2=
EXTT3=
EXTT4=
EXTT5=
EXTT6=
EXTT7=
EXTT8=
EXTT9=
PLAYORDER=
